 http://www.imagebam.com/image/2912fb128732567 
http://www.imagebam.com/image/34106a128732631 
http://www.imagebam.com/image/0c677c128732693 
http://www.imagebam.com/image/701a18128732888


Il rompiscatole (The Cable Guy) è un film del 1996 diretto da Ben Stiller e interpretato da Jim Carrey e Matthew Broderick.


The Cable Guy is a 1996 black comedy film, directed by Ben Stiller, and starring Jim Carrey and Matthew Broderick. The film also features Leslie Mann, Jack Black, and Owen Wilson. It was released in North America on Friday, June 14, 1996 by Columbia Pictures.

Trama

Steven (Matthew Broderick), cacciato di casa dalla sua compagna Robin (Leslie Mann) a causa dei loro problemi di coppia, va ad abitare in un nuovo appartamento. Nella nuova casa manca la tv via cavo, Steven chiama quindi la compagnia che gli manda Chip, il tecnico installatore.

Chip installa il servizio e si mostra un po' invadente cercando di diventare amico di Steven e costringendolo a diverse uscite insieme divenendo una presenza asfissiante per Steven che, non sopportandolo più, decide di chiudere quella nuova amicizia. Chip, da amico invadente, diventa il peggior nemico di Steven, lo fa arrestare, gli fa perdere il lavoro e la faccia davanti ai familiari.


Plot

A TV-obsessed cable installer, who gives his name as Ernie "Chip" Douglas (Jim Carrey), installs Steven Kovacs' (Matthew Broderick) cable television service after Steven moves out of the apartment he shared with his girlfriend Robin (Leslie Mann). After he illegally gives Steven free pay channels, Chip believes he and Steven have struck up a friendship. Chip takes Steven to a satellite dish and gives him advice about how to win back Robin. Chip tells Steven to invite Robin to his house to watch a movie with him. Steven does so and successfully invites Robin to his house. Chip begins to bombard Steven with calls but Steven does not respond to them. When Robin goes to Steven's house to watch the movie they find the cable has gone out. Chip reveals that he turned off the cable because Steven wasn't answering him. Chip turns on Steven's cable in exchange for him and Steven to hang out the next night.

Chip takes Steven to a Medieval Times restaurant and show where he arranges a fight between him and Steven. Chip appears to fight much more brutally than Steven. Steven however wins and the friendship between them strengthens. When they return home Steven finds that Chip has installed a full entertainment system into his house. Chip arranges a Karaoke party at Stevens' house. During the party Steven has sex with a woman named Heather whom he believes is one of Chip's customers; however, he finds out the next morning that the woman is actually a prostitute that Chip hired. Angered, Steven expels Chip from his life. Chip tries to make it up to Steven by getting Robin back with him. Chip beats up Robin's date (Owen Wilson) and is able to convince her to return to Steven. Chip tells Steven of what he has done but Steven tells Chip that he has no room in his life for another friend causing the latter man to snap. Chip resorts to stalking Steven and Robin to get the attention he feels he deserves.....


Titolo originale The Cable Guy
Paese Stati Uniti
Anno 1996
Durata 96 min
Genere Commedia nera
Regia Ben Stiller
Fotografia Robert Brinkmann
Montaggio Steven Weisberg
Musiche John Ottman


Interpreti e personaggi

   Jim Carrey: Chip, il tecnico installatore
   Matthew Broderick: Steven M. Kovacs
   Leslie Mann: Robin Harris
   Jack Black: Rick
   George Segal: Padre di Steven
   Diane Baker: Madre di Steven
   Ben Stiller: Sam Sweet / Stan Sweet
   Eric Roberts: se stesso
   Janeane Garofalo: cameriera al Medieval Times
   Andy Dick: presentatore al Medieval Times
   Kyle Gass: uomo che alla fine legge un libro
   Harry O'Reilly: capo di Steven
   Amy Stiller: segretaria di Steven
   Owen Wilson: uomo con cui esce Robin






General
Complete name : The Cable Guy 1996 BluRay 1080p Ac3 ITA ENG.mkv
Format: Matroska
File size: 7.45 GiB
Duration: 1h 35mn
Overall bit rate: 11.1 Mbps
Encoded date: UTC 2011-04-19 14:19:55
Writing application : mkvmerge v4.3.0 ('Escape from the Island')
Writing library: libebml v1.0.0 + libmatroska v1.0.0

Video
ID: 1
Format: AVC
Format/Info: Advanced Video Codec
Format profile: High@L4.1
Format settings, CABAC : Yes
Format settings, ReFrames: 4 frames
Muxing mode: Header stripping
Codec ID: V_MPEG4/ISO/AVC
Duration: 1h 35mn
Bit rate: 10.4 Mbps
Width : 1 920 pixels
Height: 800 pixels
Display aspect ratio: 2.40:1
Frame rate : 23.976 fps
Color space: YUV
Chroma subsampling: 4:2:0
Bit deh: 8 bits
Scan type: Progressive
Bits/(Pixel*Frame): 0.282
Stream size: 6.79 GiB (91%)

Audio #1
ID: 2
Format: AC-3
Format/Info: Audio Coding 3
Mode extension: CM (complete main)
Muxing mode: Header stripping
Codec ID: A_AC3
Duration: 1h 35mn
Bit rate mode : Constant
Bit rate: 384 Kbps
Channel(s) : 6 channels
Channel positions : Front: L C R, Side: L R, LFE
Sampling rate : 48.0 KHz
Bit deh: 16 bits
Stream size: 263 MiB (3%)
Title : Ac3 384kbps
Language: Italian

Audio #2
ID: 3
Format: AC-3
Format/Info: Audio Coding 3
Mode extension: CM (complete main)
Muxing mode: Header stripping
Codec ID: A_AC3
Duration: 1h 35mn
Bit rate mode : Constant
Bit rate: 384 Kbps
Channel(s) : 6 channels
Channel positions : Front: L C R, Side: L R, LFE
Sampling rate : 48.0 KHz
Bit deh: 16 bits
Stream size: 263 MiB (3%)
Title : Ac3 384kbps
Language: English

Text
ID: 4
Format: UTF-8
Codec ID: S_TEXT/UTF8
Codec ID/Info : UTF-8 Plain Text
Language: Italian
Text[/color][/b]
ID: 5
Format: UTF-8
Codec ID: S_TEXT/UTF8
Codec ID/Info : UTF-8 Plain Text
Language: English

